<svg width="1084" height="1511" xmlns="http://www.w3.org/2000/svg" xmlns:xlink="http://www.w3.org/1999/xlink" xml:space="preserve" overflow="hidden"><defs><clipPath id="clip0"><rect x="739" y="207" width="1084" height="1511"/></clipPath><clipPath id="clip1"><rect x="757" y="259" width="59" height="36"/></clipPath><clipPath id="clip2"><rect x="757" y="259" width="59" height="36"/></clipPath><clipPath id="clip3"><rect x="774" y="276" width="57" height="36"/></clipPath><clipPath id="clip4"><rect x="774" y="276" width="57" height="36"/></clipPath><clipPath id="clip5"><rect x="789" y="291" width="58" height="35"/></clipPath><clipPath id="clip6"><rect x="789" y="291" width="58" height="35"/></clipPath><clipPath id="clip7"><rect x="1600" y="1631" width="28" height="14"/></clipPath><clipPath id="clip8"><rect x="1600" y="1631" width="28" height="14"/></clipPath><clipPath id="clip9"><rect x="1608" y="1637" width="28" height="15"/></clipPath><clipPath id="clip10"><rect x="1608" y="1637" width="28" height="15"/></clipPath><clipPath id="clip11"><rect x="1615" y="1644" width="30" height="14"/></clipPath><clipPath id="clip12"><rect x="1615" y="1644" width="30" height="14"/></clipPath></defs><g clip-path="url(#clip0)" transform="translate(-739 -207)"><path d="M740 213.999C740 210.686 742.686 208 745.999 208L1813 208C1816.31 208 1819 210.686 1819 213.999L1819 1606C1819 1609.31 1816.31 1612 1813 1612L745.999 1612C742.686 1612 740 1609.31 740 1606Z" stroke="#000000" stroke-width="2.29167" stroke-miterlimit="8" fill="#F2F2F2" fill-rule="evenodd"/><path d="M860 342.913C860 340.199 862.2 338 864.913 338L1122.09 338C1124.8 338 1127 340.199 1127 342.913L1127 712.087C1127 714.801 1124.8 717 1122.09 717L864.913 717C862.2 717 860 714.801 860 712.087Z" stroke="#000000" stroke-width="2.29167" stroke-miterlimit="8" fill="#FFFFFF" fill-rule="evenodd"/><text font-family="Times New Roman,Times New Roman_MSFontService,sans-serif" font-weight="700" font-size="37" transform="matrix(1 0 0 1 906.456 384)">AppConfig</text><path d="M878 408.196C878 407.535 878.535 407 879.196 407L1107.8 407C1108.46 407 1109 407.535 1109 408.196L1109 470.804C1109 471.465 1108.46 472 1107.8 472L879.196 472C878.535 472 878 471.465 878 470.804Z" stroke="#000000" stroke-width="2.29167" stroke-miterlimit="8" stroke-dasharray="9.16667 6.875" fill="#FFFFFF" fill-rule="evenodd"/><text font-family="Times New Roman,Times New Roman_MSFontService,sans-serif" font-weight="400" font-size="37" transform="matrix(1 0 0 1 925.076 452)">dpp_plan</text><path d="M878 497.061C878 495.923 878.923 495 880.061 495L1106.94 495C1108.08 495 1109 495.923 1109 497.061L1109 604.939C1109 606.077 1108.08 607 1106.94 607L880.061 607C878.923 607 878 606.077 878 604.939Z" stroke="#000000" stroke-width="2.29167" stroke-miterlimit="8" stroke-dasharray="9.16667 6.875" fill="#FFFFFF" fill-rule="evenodd"/><text font-family="Times New Roman,Times New Roman_MSFontService,sans-serif" font-weight="400" font-size="37" transform="matrix(1 0 0 1 945.712 540)">order_</text><text font-family="Times New Roman,Times New Roman_MSFontService,sans-serif" font-weight="400" font-size="37" transform="matrix(1 0 0 1 913.331 590)">parameters</text><path d="M878 630.196C878 629.536 878.535 629 879.196 629L1107.8 629C1108.46 629 1109 629.536 1109 630.196L1109 692.804C1109 693.465 1108.46 694 1107.8 694L879.196 694C878.535 694 878 693.465 878 692.804Z" stroke="#000000" stroke-width="2.29167" stroke-miterlimit="8" stroke-dasharray="9.16667 6.875" fill="#FFFFFF" fill-rule="evenodd"/><text font-family="Times New Roman,Times New Roman_MSFontService,sans-serif" font-weight="400" font-size="37" transform="matrix(1 0 0 1 886.404 674)">system_config</text><path d="M792 1262.87C792 1261.28 793.285 1260 794.87 1260L1010.13 1260C1011.71 1260 1013 1261.28 1013 1262.87L1013 1413.13C1013 1414.71 1011.71 1416 1010.13 1416L794.87 1416C793.285 1416 792 1414.71 792 1413.13Z" stroke="#000000" stroke-width="2.29167" stroke-miterlimit="8" fill="#FFFFFF" fill-rule="evenodd"/><text font-family="Times New Roman,Times New Roman_MSFontService,sans-serif" font-weight="700" font-size="37" transform="matrix(1 0 0 1 853.438 1305)">Order</text><path d="M807 1329.2C807 1328.54 807.536 1328 808.196 1328L995.804 1328C996.464 1328 997 1328.54 997 1329.2L997 1391.8C997 1392.46 996.464 1393 995.804 1393L808.196 1393C807.536 1393 807 1392.46 807 1391.8Z" stroke="#000000" stroke-width="2.29167" stroke-miterlimit="8" stroke-dasharray="9.16667 6.875" fill="#FFFFFF" fill-rule="evenodd"/><text font-family="Times New Roman,Times New Roman_MSFontService,sans-serif" font-weight="400" font-size="37" transform="matrix(1 0 0 1 828.803 1373)">__</text><text font-family="Times New Roman,Times New Roman_MSFontService,sans-serif" font-weight="400" font-size="37" transform="matrix(1 0 0 1 865.469 1373)">init</text><text font-family="Times New Roman,Times New Roman_MSFontService,sans-serif" font-weight="400" font-size="37" transform="matrix(1 0 0 1 914.74 1373)">__()</text><path d="M1274 343.961C1274 340.669 1276.67 338 1279.96 338L1592.04 338C1595.33 338 1598 340.669 1598 343.961L1598 711.039C1598 714.331 1595.33 717 1592.04 717L1279.96 717C1276.67 717 1274 714.331 1274 711.039Z" stroke="#000000" stroke-width="2.29167" stroke-miterlimit="8" fill="#FFFFFF" fill-rule="evenodd"/><text font-family="Times New Roman,Times New Roman_MSFontService,sans-serif" font-weight="700" font-size="37" transform="matrix(1 0 0 1 1308.34 384)">MainSimulation</text><path d="M1297 407.196C1297 406.535 1297.54 406 1298.2 406L1573.8 406C1574.46 406 1575 406.535 1575 407.196L1575 469.804C1575 470.464 1574.46 471 1573.8 471L1298.2 471C1297.54 471 1297 470.464 1297 469.804Z" stroke="#000000" stroke-width="2.29167" stroke-miterlimit="8" stroke-dasharray="9.16667 6.875" fill="#FFFFFF" fill-rule="evenodd"/><text font-family="Times New Roman,Times New Roman_MSFontService,sans-serif" font-weight="400" font-size="37" transform="matrix(1 0 0 1 1362.77 451)">__</text><text font-family="Times New Roman,Times New Roman_MSFontService,sans-serif" font-weight="400" font-size="37" transform="matrix(1 0 0 1 1399.43 451)">init</text><text font-family="Times New Roman,Times New Roman_MSFontService,sans-serif" font-weight="400" font-size="37" transform="matrix(1 0 0 1 1448.7 451)">__()</text><path d="M1297 496.061C1297 494.923 1297.92 494 1299.06 494L1572.94 494C1574.08 494 1575 494.923 1575 496.061L1575 603.939C1575 605.077 1574.08 606 1572.94 606L1299.06 606C1297.92 606 1297 605.077 1297 603.939Z" stroke="#000000" stroke-width="2.29167" stroke-miterlimit="8" stroke-dasharray="9.16667 6.875" fill="#FFFFFF" fill-rule="evenodd"/><text font-family="Times New Roman,Times New Roman_MSFontService,sans-serif" font-weight="400" font-size="37" transform="matrix(1 0 0 1 1318.35 539)">create_stations</text><text font-family="Times New Roman,Times New Roman_MSFontService,sans-serif" font-weight="400" font-size="37" transform="matrix(1 0 0 1 1535.49 539)">_</text><text font-family="Times New Roman,Times New Roman_MSFontService,sans-serif" font-weight="400" font-size="37" transform="matrix(1 0 0 1 1310.63 589)">and_warehouse</text><text font-family="Times New Roman,Times New Roman_MSFontService,sans-serif" font-weight="400" font-size="37" transform="matrix(1 0 0 1 1537.51 589)">()</text><path d="M1299 630.196C1299 629.535 1299.54 629 1300.2 629L1571.8 629C1572.46 629 1573 629.535 1573 630.196L1573 692.804C1573 693.465 1572.46 694 1571.8 694L1300.2 694C1299.54 694 1299 693.465 1299 692.804Z" stroke="#000000" stroke-width="2.29167" stroke-miterlimit="8" stroke-dasharray="9.16667 6.875" fill="#FFFFFF" fill-rule="evenodd"/><text font-family="Times New Roman,Times New Roman_MSFontService,sans-serif" font-weight="400" font-size="37" transform="matrix(1 0 0 1 1312.92 674)">run_simulation</text><text font-family="Times New Roman,Times New Roman_MSFontService,sans-serif" font-weight="400" font-size="37" transform="matrix(1 0 0 1 1535.21 674)">()</text><path d="M1150 802.324C1150 799.936 1151.94 798 1154.32 798L1380.68 798C1383.06 798 1385 799.936 1385 802.324L1385 1037.68C1385 1040.06 1383.06 1042 1380.68 1042L1154.32 1042C1151.94 1042 1150 1040.06 1150 1037.68Z" stroke="#000000" stroke-width="2.29167" stroke-miterlimit="8" fill="#FFFFFF" fill-rule="evenodd"/><text font-family="Times New Roman,Times New Roman_MSFontService,sans-serif" font-weight="700" font-size="37" transform="matrix(1 0 0 1 1165.18 844)">PreShopPool</text><path d="M1167 867.196C1167 866.535 1167.54 866 1168.2 866L1366.8 866C1367.46 866 1368 866.535 1368 867.196L1368 929.804C1368 930.464 1367.46 931 1366.8 931L1168.2 931C1167.54 931 1167 930.464 1167 929.804Z" stroke="#000000" stroke-width="2.29167" stroke-miterlimit="8" stroke-dasharray="9.16667 6.875" fill="#FFFFFF" fill-rule="evenodd"/><text font-family="Times New Roman,Times New Roman_MSFontService,sans-serif" font-weight="400" font-size="37" transform="matrix(1 0 0 1 1193.83 911)">__</text><text font-family="Times New Roman,Times New Roman_MSFontService,sans-serif" font-weight="400" font-size="37" transform="matrix(1 0 0 1 1230.5 911)">init</text><text font-family="Times New Roman,Times New Roman_MSFontService,sans-serif" font-weight="400" font-size="37" transform="matrix(1 0 0 1 1279.77 911)">__()</text><path d="M1167 955.196C1167 954.535 1167.54 954 1168.2 954L1366.8 954C1367.46 954 1368 954.535 1368 955.196L1368 1017.8C1368 1018.46 1367.46 1019 1366.8 1019L1168.2 1019C1167.54 1019 1167 1018.46 1167 1017.8Z" stroke="#000000" stroke-width="2.29167" stroke-miterlimit="8" stroke-dasharray="9.16667 6.875" fill="#FFFFFF" fill-rule="evenodd"/><text font-family="Times New Roman,Times New Roman_MSFontService,sans-serif" font-weight="400" font-size="37" transform="matrix(1 0 0 1 1174.06 999)">add_orders</text><text font-family="Times New Roman,Times New Roman_MSFontService,sans-serif" font-weight="400" font-size="37" transform="matrix(1 0 0 1 1336.2 999)">()</text><path d="M792 802.066C792 799.82 793.821 798 796.067 798L1008.93 798C1011.18 798 1013 799.82 1013 802.066L1013 1124.93C1013 1127.18 1011.18 1129 1008.93 1129L796.067 1129C793.821 1129 792 1127.18 792 1124.93Z" stroke="#000000" stroke-width="2.29167" stroke-miterlimit="8" fill="#FFFFFF" fill-rule="evenodd"/><text font-family="Times New Roman,Times New Roman_MSFontService,sans-serif" font-weight="700" font-size="37" transform="matrix(1 0 0 1 853.427 843)">Order</text><text font-family="Times New Roman,Times New Roman_MSFontService,sans-serif" font-weight="700" font-size="37" transform="matrix(1 0 0 1 821.068 893)">Generator</text><path d="M807 996.079C807 994.931 807.931 994 809.079 994L994.921 994C996.069 994 997 994.931 997 996.079L997 1104.92C997 1106.07 996.069 1107 994.921 1107L809.079 1107C807.931 1107 807 1106.07 807 1104.92Z" stroke="#000000" stroke-width="2.29167" stroke-miterlimit="8" stroke-dasharray="9.16667 6.875" fill="#FFFFFF" fill-rule="evenodd"/><text font-family="Times New Roman,Times New Roman_MSFontService,sans-serif" font-weight="400" font-size="37" transform="matrix(1 0 0 1 831.381 1039)">generate_</text><text font-family="Times New Roman,Times New Roman_MSFontService,sans-serif" font-weight="400" font-size="37" transform="matrix(1 0 0 1 844.558 1089)">orders()</text><path d="M807 907.196C807 906.536 807.536 906 808.196 906L995.804 906C996.464 906 997 906.536 997 907.196L997 969.804C997 970.465 996.464 971 995.804 971L808.196 971C807.536 971 807 970.465 807 969.804Z" stroke="#000000" stroke-width="2.29167" stroke-miterlimit="8" stroke-dasharray="9.16667 6.875" fill="#FFFFFF" fill-rule="evenodd"/><text font-family="Times New Roman,Times New Roman_MSFontService,sans-serif" font-weight="400" font-size="37" transform="matrix(1 0 0 1 828.803 951)">__</text><text font-family="Times New Roman,Times New Roman_MSFontService,sans-serif" font-weight="400" font-size="37" transform="matrix(1 0 0 1 865.47 951)">init</text><text font-family="Times New Roman,Times New Roman_MSFontService,sans-serif" font-weight="400" font-size="37" transform="matrix(1 0 0 1 914.74 951)">__()</text><path d="M1140 1264.67C1140 1262.09 1142.09 1260 1144.67 1260L1389.33 1260C1391.91 1260 1394 1262.09 1394 1264.67L1394 1537.33C1394 1539.91 1391.91 1542 1389.33 1542L1144.67 1542C1142.09 1542 1140 1539.91 1140 1537.33Z" stroke="#000000" stroke-width="2.29167" stroke-miterlimit="8" fill="#FFFFFF" fill-rule="evenodd"/><text font-family="Times New Roman,Times New Roman_MSFontService,sans-serif" font-weight="700" font-size="37" transform="matrix(1 0 0 1 1159.74 1306)">OrderRelease</text><text font-family="Times New Roman,Times New Roman_MSFontService,sans-serif" font-weight="700" font-size="37" transform="matrix(1 0 0 1 1206.15 1356)">Control</text><path d="M1148 1367.2C1148 1366.54 1148.54 1366 1149.2 1366L1384.8 1366C1385.46 1366 1386 1366.54 1386 1367.2L1386 1429.8C1386 1430.46 1385.46 1431 1384.8 1431L1149.2 1431C1148.54 1431 1148 1430.46 1148 1429.8Z" stroke="#000000" stroke-width="2.29167" stroke-miterlimit="8" stroke-dasharray="9.16667 6.875" fill="#FFFFFF" fill-rule="evenodd"/><text font-family="Times New Roman,Times New Roman_MSFontService,sans-serif" font-weight="400" font-size="37" transform="matrix(1 0 0 1 1193.83 1411)">__</text><text font-family="Times New Roman,Times New Roman_MSFontService,sans-serif" font-weight="400" font-size="37" transform="matrix(1 0 0 1 1230.5 1411)">init</text><text font-family="Times New Roman,Times New Roman_MSFontService,sans-serif" font-weight="400" font-size="37" transform="matrix(1 0 0 1 1279.77 1411)">__()</text><path d="M1148 1455.2C1148 1454.54 1148.54 1454 1149.2 1454L1384.8 1454C1385.46 1454 1386 1454.54 1386 1455.2L1386 1517.8C1386 1518.46 1385.46 1519 1384.8 1519L1149.2 1519C1148.54 1519 1148 1518.46 1148 1517.8Z" stroke="#000000" stroke-width="2.29167" stroke-miterlimit="8" stroke-dasharray="9.16667 6.875" fill="#FFFFFF" fill-rule="evenodd"/><text font-family="Times New Roman,Times New Roman_MSFontService,sans-serif" font-weight="400" font-size="37" transform="matrix(1 0 0 1 1157.16 1499)">release_order</text><text font-family="Times New Roman,Times New Roman_MSFontService,sans-serif" font-weight="400" font-size="37" transform="matrix(1 0 0 1 1353.1 1499)">()</text><path d="M1522 802.066C1522 799.82 1523.82 798 1526.07 798L1738.93 798C1741.18 798 1743 799.82 1743 802.066L1743 1172.93C1743 1175.18 1741.18 1177 1738.93 1177L1526.07 1177C1523.82 1177 1522 1175.18 1522 1172.93Z" stroke="#000000" stroke-width="2.29167" stroke-miterlimit="8" fill="#FFFFFF" fill-rule="evenodd"/><text font-family="Times New Roman,Times New Roman_MSFontService,sans-serif" font-weight="700" font-size="37" transform="matrix(1 0 0 1 1530.21 843)">WorkStation</text><path d="M1538 867.196C1538 866.535 1538.54 866 1539.2 866L1725.8 866C1726.46 866 1727 866.535 1727 867.196L1727 929.804C1727 930.464 1726.46 931 1725.8 931L1539.2 931C1538.54 931 1538 930.464 1538 929.804Z" stroke="#000000" stroke-width="2.29167" stroke-miterlimit="8" stroke-dasharray="9.16667 6.875" fill="#FFFFFF" fill-rule="evenodd"/><text font-family="Times New Roman,Times New Roman_MSFontService,sans-serif" font-weight="400" font-size="37" transform="matrix(1 0 0 1 1558.85 911)">__</text><text font-family="Times New Roman,Times New Roman_MSFontService,sans-serif" font-weight="400" font-size="37" transform="matrix(1 0 0 1 1595.52 911)">init</text><text font-family="Times New Roman,Times New Roman_MSFontService,sans-serif" font-weight="400" font-size="37" transform="matrix(1 0 0 1 1644.79 911)">__()</text><path d="M1538 955.196C1538 954.535 1538.54 954 1539.2 954L1725.8 954C1726.46 954 1727 954.535 1727 955.196L1727 1017.8C1727 1018.46 1726.46 1019 1725.8 1019L1539.2 1019C1538.54 1019 1538 1018.46 1538 1017.8Z" stroke="#000000" stroke-width="2.29167" stroke-miterlimit="8" stroke-dasharray="9.16667 6.875" fill="#FFFFFF" fill-rule="evenodd"/><text font-family="Times New Roman,Times New Roman_MSFontService,sans-serif" font-weight="400" font-size="37" transform="matrix(1 0 0 1 1555.13 999)">add_task</text><text font-family="Times New Roman,Times New Roman_MSFontService,sans-serif" font-weight="400" font-size="37" transform="matrix(1 0 0 1 1685.18 999)">()</text><path d="M1538 1044.06C1538 1042.92 1538.92 1042 1540.06 1042L1724.94 1042C1726.08 1042 1727 1042.92 1727 1044.06L1727 1151.94C1727 1153.08 1726.08 1154 1724.94 1154L1540.06 1154C1538.92 1154 1538 1153.08 1538 1151.94Z" stroke="#000000" stroke-width="2.29167" stroke-miterlimit="8" stroke-dasharray="9.16667 6.875" fill="#FFFFFF" fill-rule="evenodd"/><text font-family="Times New Roman,Times New Roman_MSFontService,sans-serif" font-weight="400" font-size="37" transform="matrix(1 0 0 1 1568.31 1087)">process_</text><text font-family="Times New Roman,Times New Roman_MSFontService,sans-serif" font-weight="400" font-size="37" transform="matrix(1 0 0 1 1590.65 1137)">task()</text><path d="M1521 1280.08C1521 1277.83 1522.83 1276 1525.08 1276L1738.92 1276C1741.17 1276 1743 1277.83 1743 1280.08L1743 1515.92C1743 1518.17 1741.17 1520 1738.92 1520L1525.08 1520C1522.83 1520 1521 1518.17 1521 1515.92Z" stroke="#000000" stroke-width="2.29167" stroke-miterlimit="8" fill="#FFFFFF" fill-rule="evenodd"/><text font-family="Times New Roman,Times New Roman_MSFontService,sans-serif" font-weight="700" font-size="37" transform="matrix(1 0 0 1 1543.67 1322)">Warehouse</text><path d="M1537 1346.2C1537 1345.54 1537.54 1345 1538.2 1345L1725.8 1345C1726.46 1345 1727 1345.54 1727 1346.2L1727 1408.8C1727 1409.46 1726.46 1410 1725.8 1410L1538.2 1410C1537.54 1410 1537 1409.46 1537 1408.8Z" stroke="#000000" stroke-width="2.29167" stroke-miterlimit="8" stroke-dasharray="9.16667 6.875" fill="#FFFFFF" fill-rule="evenodd"/><text font-family="Times New Roman,Times New Roman_MSFontService,sans-serif" font-weight="400" font-size="37" transform="matrix(1 0 0 1 1558.85 1389)">__</text><text font-family="Times New Roman,Times New Roman_MSFontService,sans-serif" font-weight="400" font-size="37" transform="matrix(1 0 0 1 1595.52 1389)">init</text><text font-family="Times New Roman,Times New Roman_MSFontService,sans-serif" font-weight="400" font-size="37" transform="matrix(1 0 0 1 1644.79 1389)">__()</text><path d="M1537 1433.2C1537 1432.54 1537.54 1432 1538.2 1432L1725.8 1432C1726.46 1432 1727 1432.54 1727 1433.2L1727 1495.8C1727 1496.46 1726.46 1497 1725.8 1497L1538.2 1497C1537.54 1497 1537 1496.46 1537 1495.8Z" stroke="#000000" stroke-width="2.29167" stroke-miterlimit="8" stroke-dasharray="9.16667 6.875" fill="#FFFFFF" fill-rule="evenodd"/><text font-family="Times New Roman,Times New Roman_MSFontService,sans-serif" font-weight="400" font-size="37" transform="matrix(1 0 0 1 1551.98 1477)">add_item</text><text font-family="Times New Roman,Times New Roman_MSFontService,sans-serif" font-weight="400" font-size="37" transform="matrix(1 0 0 1 1688.33 1477)">()</text><path d="M0-1.14583 95.3046-1.14583 95.3046 223.196 94.1588 222.05 165.401 222.05 165.401 224.342 93.013 224.342 93.013 0 94.1588 1.14583 0 1.14583ZM160.818 209.446 188.318 223.196 160.818 236.946Z" transform="matrix(1 0 0 -1 1109 661.196)"/><path d="M0-1.14583 112.762-1.14583 112.762 389.091 93.2824 389.091 93.2824 386.799 111.616 386.799 110.471 387.945 110.471 0 111.616 1.14583 0 1.14583ZM97.8657 401.695 70.3657 387.945 97.8657 374.195Z" transform="matrix(-1 1.22465e-16 1.22465e-16 1 877.366 551)"/><path d="M0-1.14583 114.481-1.14583 114.481 500.689 93.2824 500.689 93.2824 498.397 113.335 498.397 112.189 499.543 112.189 0 113.335 1.14583 0 1.14583ZM97.8657 513.293 70.3657 499.543 97.8657 485.793Z" transform="matrix(-1 1.22465e-16 1.22465e-16 1 877.366 439)"/><path d="M1436.84 694 1436.84 747.911 764.035 747.911 765.181 746.765 765.181 938.599 764.035 937.453 784.083 937.453 784.083 939.744 762.889 939.744 762.889 745.619 1435.69 745.619 1434.55 746.765 1434.55 694ZM779.5 924.849 807 938.599 779.5 952.349Z"/><path d="M1437.69 694 1437.69 748.407 1057 748.407 1058.15 747.261 1058.15 898.341 1057 897.195 1144.08 897.195 1144.08 899.487 1055.85 899.487 1055.85 746.116 1436.54 746.116 1435.4 747.261 1435.4 694ZM1139.5 884.591 1167 898.341 1139.5 912.091Z"/><path d="M0-1.14583 106.615-1.14583 106.615 373.955 105.469 372.809 146.774 372.809 146.774 375.101 104.324 375.101 104.324 0 105.469 1.14583 0 1.14583ZM142.191 360.205 169.691 373.955 142.191 387.705Z" transform="matrix(1 0 0 -1 997 1359.95)"/><path d="M1437 694 1437 748.24 1056.9 748.24 1058.05 747.094 1058.05 1398.17 1056.9 1397.02 1125.08 1397.02 1125.08 1399.31 1055.76 1399.31 1055.76 745.948 1435.85 745.948 1434.71 747.094 1434.71 694ZM1120.5 1384.42 1148 1398.17 1120.5 1411.92Z"/><path d="M0-1.14583 76.8959-1.14583 76.8959 499.825 75.75 498.679 128.583 498.679 128.583 500.971 74.6042 500.971 74.6042 0 75.75 1.14583 0 1.14583ZM124 486.075 151.5 499.825 124 513.575Z" transform="matrix(1 0 0 -1 1386 1485.82)"/><path d="M0 1.14583-82.5 1.14583-81.3542 0-81.3542 229.048-82.5 227.902 151.296 227.902 151.296 349.592 60.4888 349.592 60.4888 347.301 150.15 347.301 149.004 348.447 149.004 229.048 150.15 230.194-83.6459 230.194-83.6459-1.14583 0-1.14583ZM65.0721 362.197 37.5721 348.447 65.0721 334.697Z" transform="matrix(-1 0 0 1 1575.57 550)"/><path d="M0 1.14583-82.5004 1.14583-81.3546 0-81.3546 228.559-82.5004 227.413 150.863 227.413 150.863 828.148 60.915 828.148 60.915 825.857 149.717 825.857 148.571 827.003 148.571 228.559 149.717 229.705-83.6462 229.705-83.6462-1.14583 0-1.14583ZM65.4984 840.753 37.9984 827.003 65.4984 813.253Z" transform="matrix(-1 0 0 1 1575 550)"/><path d="M1727 1098 1768.06 1098 1768.06 1179.66" stroke="#000000" stroke-width="2.29167" stroke-miterlimit="8" fill="none" fill-rule="evenodd"/><path d="M903.146 1107 903.146 1237.12 900.854 1237.12 900.854 1107ZM915.75 1232.54 902 1260.04 888.25 1232.54Z"/><path d="M1267 1042 1267 1259.83" stroke="#000000" stroke-width="2.29167" stroke-miterlimit="8" fill="none" fill-rule="evenodd"/><rect x="857" y="240" width="145" height="51.9999" fill="#F2F2F2"/><text font-family="Times New Roman,Times New Roman_MSFontService,sans-serif" font-weight="400" font-size="37" transform="matrix(1 0 0 1 891.873 285)">Read</text><text font-family="Times New Roman,Times New Roman_MSFontService,sans-serif" font-weight="400" font-size="28" transform="matrix(1 0 0 1 794.39 1649)">Class object</text><path d="M740 1625.15C740 1625.07 740.067 1625 740.15 1625L787.85 1625C787.933 1625 788 1625.07 788 1625.15L788 1651.85C788 1651.93 787.933 1652 787.85 1652L740.15 1652C740.067 1652 740 1651.93 740 1651.85Z" stroke="#000000" stroke-width="2.29167" stroke-miterlimit="8" fill="#FFFFFF" fill-rule="evenodd"/><text font-family="Times New Roman,Times New Roman_MSFontService,sans-serif" font-weight="400" font-size="28" transform="matrix(1 0 0 1 999.001 1649)">Class attribute / method</text><path d="M946 1625.15C946 1625.07 946.067 1625 946.15 1625L991.85 1625C991.933 1625 992 1625.07 992 1625.15L992 1651.85C992 1651.93 991.933 1652 991.85 1652L946.15 1652C946.067 1652 946 1651.93 946 1651.85Z" stroke="#000000" stroke-width="2.29167" stroke-miterlimit="8" stroke-dasharray="9.16667 6.875" fill="#FFFFFF" fill-rule="evenodd"/><text font-family="Times New Roman,Times New Roman_MSFontService,sans-serif" font-weight="400" font-size="28" transform="matrix(1 0 0 1 799.466 1694)">Direct calls / data flow</text><path d="M740 1682.85 769.602 1682.85 769.602 1685.15 740 1685.15ZM765.018 1670.25 792.518 1684 765.018 1697.75Z"/><text font-family="Times New Roman,Times New Roman_MSFontService,sans-serif" font-weight="400" font-size="28" transform="matrix(1 0 0 1 1195.38 1694)">Indirect dependencies or configurations</text><path d="M1136.5 1684.5 1189.02 1684.5" stroke="#000000" stroke-width="4.58333" stroke-miterlimit="8" fill="none" fill-rule="evenodd"/><path d="M1402 251.5C1402 232.446 1417.22 217 1436 217 1454.78 217 1470 232.446 1470 251.5 1470 270.554 1454.78 286 1436 286 1417.22 286 1402 270.554 1402 251.5Z" stroke="#000000" stroke-width="2.29167" stroke-miterlimit="8" fill="#FFFFFF" fill-rule="evenodd"/><path d="M1437.15 286 1437.15 314.612 1434.85 314.612 1434.85 286ZM1449.75 310.028 1436 337.529 1422.25 310.029Z"/><path d="M1720 1226.5C1720 1200.82 1741.49 1180 1768 1180 1794.51 1180 1816 1200.82 1816 1226.5 1816 1252.18 1794.51 1273 1768 1273 1741.49 1273 1720 1252.18 1720 1226.5Z" stroke="#000000" stroke-width="2.29167" stroke-miterlimit="8" fill="#FFFFFF" fill-rule="evenodd"/><g><g><g><path d="M23.6 61.7169 21.1 69.2169 26.8 74.9169 34.3 72.4169C36.2897 73.5298 38.4045 74.4026 40.6 75.0169L44.1 82.0169 52.0999 82.0169 55.5999 75.0169C57.7697 74.4204 59.8536 73.5465 61.7999 72.4169L69.2999 74.9169 74.9999 69.2169 72.4999 61.7169C73.6123 59.727 74.4851 57.6122 75.0999 55.4169L82.0999 51.9169 82.0999 43.917 74.9999 40.517C74.4029 38.3473 73.529 36.2635 72.3999 34.317L74.8999 26.817 69.1999 21.117 61.6999 23.617C59.7102 22.5041 57.5954 21.6313 55.3999 21.017L51.9999 14 44 14 40.5 21C38.3302 21.5965 36.2463 22.4704 34.3 23.6L26.8 21.1 21.1 26.8 23.6 34.3C22.4876 36.2899 21.6148 38.4047 21 40.6L14 44 14 51.9999 21 55.4999C21.5956 57.6754 22.4695 59.765 23.6 61.7169ZM16 45.264 21.874 42.41 22.691 42.01 22.93 41.134C23.5041 39.0905 24.3174 37.1219 25.353 35.269L25.774 34.503 25.498 33.673 23.388 27.344 27.341 23.39 33.668 25.5 34.523 25.785 35.303 25.333C37.0998 24.29 39.0237 23.4833 41.027 22.933L41.89 22.698 42.29 21.898 45.238 16 50.75 16 53.5999 21.88 53.9999 22.696 54.8759 22.935C56.9186 23.51 58.8865 24.3236 60.7389 25.359L61.5059 25.781 62.3359 25.504 68.6629 23.394 72.6159 27.348 70.5059 33.677 70.2209 34.532 70.6729 35.311C71.7164 37.1082 72.5231 39.0329 73.0729 41.037L73.3139 41.92 74.1389 42.315 80.0999 45.172 80.0999 50.679 74.2049 53.6269 73.4049 54.0269 73.1699 54.8889C72.5956 56.9323 71.7823 58.9009 70.7469 60.7539L70.3259 61.5199 70.6019 62.3499 72.7119 68.6789 68.7589 72.6329 62.4319 70.5229 61.5769 70.2379 60.7969 70.6899C58.9999 71.7331 57.0756 72.5398 55.0719 73.0899L54.2099 73.3249 53.8099 74.1249 50.8619 80.0249 45.338 80.0249 42.391 74.1249 41.991 73.3249 41.128 73.0899C39.0856 72.5149 37.118 71.7013 35.266 70.6659L34.499 70.2439 33.669 70.5209 27.342 72.6309 23.389 68.6769 25.5 62.3499 25.784 61.4949 25.333 60.7149C24.2892 58.9178 23.4825 56.9932 22.933 54.9889L22.697 54.1269 21.897 53.7269 16 50.7789Z" transform="matrix(1 0 0 1.01042 1720 1178)"/><path d="M48 60.0169C54.6273 60.0169 59.9999 54.6443 59.9999 48.0169 59.9999 41.3896 54.6273 36.017 48 36.017 41.3726 36.017 36 41.3896 36 48.0169 36.0209 54.6357 41.3812 59.996 48 60.0169ZM48 38.01C53.5227 38.01 57.9999 42.4872 57.9999 48.0099 57.9999 53.5327 53.5227 58.0099 48 58.0099 42.4772 58.0099 38 53.5327 38 48.0099 38.0072 42.4901 42.4801 38.0172 48 38.01Z" transform="matrix(1 0 0 1.01042 1720 1178)"/></g></g></g><path d="M1768.77 1273 1768.77 1466.13 1749.92 1466.13 1749.92 1463.84 1767.63 1463.84 1766.48 1464.99 1766.48 1273ZM1754.5 1478.74 1727 1464.99 1754.5 1451.24Z"/><rect x="756" y="223" width="61.0002" height="80.9998" fill="#FFFFFF"/><g clip-path="url(#clip1)"><g clip-path="url(#clip2)"><g><path d="M117.681 103.038C128.642 107.12 137.06 111.481 142.599 116.19 145.717 118.689 147.597 122.419 147.752 126.412L151.168 153.674C151.448 155.783 150.529 157.872 148.787 159.092 146.02 160.915 143.066 162.436 139.976 163.63L139.976 167.819C143.842 166.419 147.53 164.568 150.962 162.304 153.906 160.266 155.468 156.757 155.012 153.206L151.641 126.227C151.409 121.166 149.041 116.441 145.126 113.225 139.906 109.004 134.108 105.552 127.911 102.972 127.963 97.5846 128.265 66.16 128.319 53.6944 128.384 50.3754 127.995 47.0632 127.164 43.8494 124.493 33.9819 117.743 25.7206 108.606 21.1364 107.115 20.4017 105.341 20.5514 103.994 21.5252L103.777 21.6807 102.915 20.4773C102.011 19.1837 100.632 18.2992 99.0796 18.0161 88.8357 16.2203 78.327 19.1225 70.4565 25.9208 62.6295 32.8028 58.2335 42.7844 58.4399 53.2045L58.751 102.974C52.5472 105.554 46.7446 109.009 41.5204 113.235 37.6045 116.45 35.2362 121.175 35.0037 126.237L31.6365 153.229C31.1913 156.772 32.7536 160.269 35.69 162.302 39.1171 164.565 42.7986 166.416 46.6586 167.818L46.6586 163.626C43.5772 162.431 40.6319 160.911 37.8732 159.09 36.1363 157.875 35.2181 155.796 35.4897 153.694L38.8822 126.612 38.8978 126.418C39.0511 122.426 40.9286 118.696 44.0438 116.196 49.672 111.398 57.7051 107.177 68.9537 103.038 74.2183 106.656 83.4023 108.87 93.3173 108.87 103.232 108.87 112.416 106.656 117.681 103.038ZM67.344 99.5015C65.7045 100.106 64.1329 100.713 62.6295 101.323L62.3282 53.1792C62.1289 43.9062 66.0249 35.0163 72.978 28.8778 79.9638 22.8345 89.2973 20.2537 98.3953 21.8499 98.9437 21.9624 99.4272 22.2828 99.7445 22.7441L101.733 25.5242C102.357 26.3958 103.568 26.5985 104.441 25.9772L106.24 24.696C106.418 24.5607 106.656 24.531 106.862 24.6183 115.007 28.7091 121.023 36.077 123.402 44.8759 124.141 47.7495 124.485 50.7104 124.423 53.6769 124.372 65.2093 124.11 92.9985 124.034 101.333 122.568 100.739 121.042 100.148 119.454 99.5598L113.233 97.0072C111.771 96.4106 110.816 94.9892 110.814 93.4106L110.814 86.9212C116.976 81.7607 120.535 74.1365 120.535 66.0997L120.535 56.3792C120.535 53.158 117.924 50.5469 114.702 50.5469L71.9321 50.5469C68.7109 50.5469 66.0997 53.158 66.0997 56.3792L66.0997 66.0997C66.1007 74.1274 69.6538 81.7432 75.8047 86.9017L75.8047 93.4028C75.8102 94.9828 74.8589 96.409 73.3979 97.0111ZM69.988 66.0997 69.988 56.3792C69.988 55.3055 70.8583 54.4351 71.9321 54.4351L114.702 54.4351C115.776 54.4351 116.647 55.3055 116.647 56.3792L116.647 66.0997C116.647 78.9841 106.202 89.4291 93.3173 89.4291 80.4329 89.4291 69.988 78.9841 69.988 66.0997ZM93.3173 104.982C86.5199 105.138 79.7682 103.834 73.5185 101.156L74.8793 100.6C77.8029 99.4093 79.7128 96.5653 79.7085 93.4087L79.7085 89.6235C88.1143 94.5374 98.5153 94.5427 106.926 89.6371L106.926 93.4087C106.92 96.5645 108.828 99.409 111.749 100.602L113.11 101.16C106.862 103.836 100.113 105.14 93.3173 104.982Z" transform="matrix(1 0 0 1.00097 694.815 126.66)"/><path d="M136.088 127.417C136.077 123.605 132.979 120.524 129.167 120.535 129.163 120.535 129.159 120.535 129.155 120.535L57.4368 120.535C53.6347 120.535 50.5511 123.615 50.5469 127.417L50.5469 171.451 36.9381 171.451 36.9381 175.872C36.9636 179.664 40.0358 182.729 43.828 182.746L142.83 182.746C146.616 182.717 149.675 179.65 149.696 175.864L149.696 171.451 136.088 171.451ZM145.808 175.339 145.808 175.856C145.798 177.504 144.469 178.839 142.822 178.858L43.8358 178.858C42.1819 178.853 40.8401 177.518 40.8263 175.864L40.8263 175.339 54.4351 175.339 54.4351 127.417C54.4372 125.761 55.7812 124.421 57.4368 124.423L129.213 124.423C130.863 124.429 132.197 125.767 132.199 127.417L132.199 175.339Z" transform="matrix(1 0 0 1.00097 694.815 126.66)"/><path d="M86.9134 161.711 90.51 163.208 99.6084 141.201 96.0313 139.704 86.9134 161.711Z" transform="matrix(1 0 0 1.00097 694.815 126.66)"/><path d="M80.5173 140.034 69.6108 150.941 80.5173 161.847 83.2585 159.106 75.1126 150.941 83.2585 142.775 80.5173 140.034Z" transform="matrix(1 0 0 1.00097 694.815 126.66)"/><path d="M103.322 142.775 111.467 150.941 103.322 159.106 106.063 161.847 116.969 150.941 106.063 140.034 103.322 142.775Z" transform="matrix(1 0 0 1.00097 694.815 126.66)"/></g></g></g><g><g><g><path d="M17.8327 7.92564 17.8327 87.1821 77.275 87.1821 77.275 29.311 55.8897 7.92564ZM56.4871 11.3248 73.8759 28.7136C73.8798 28.7175 73.8797 28.7238 73.8758 28.7276 73.8739 28.7294 73.8716 28.7305 73.869 28.7305L56.4702 28.7305 56.4702 11.3317C56.4703 11.3262 56.4748 11.3219 56.4802 11.3219 56.4828 11.322 56.4853 11.323 56.4871 11.3248ZM19.8141 85.2007 19.8141 9.90706 54.4888 9.90706 54.4888 30.7119 75.2936 30.7119 75.2936 85.2007Z" transform="matrix(1 0 0 1.00281 738.946 215.813)"/></g></g></g><rect x="772" y="239" width="60.9998" height="81.0001" fill="#FFFFFF"/><g clip-path="url(#clip3)"><g clip-path="url(#clip4)"><g><path d="M117.68 103.037C128.641 107.12 137.059 111.48 142.598 116.189 145.716 118.689 147.596 122.418 147.751 126.411L151.167 153.673C151.447 155.782 150.528 157.871 148.786 159.091 146.019 160.914 143.065 162.435 139.975 163.629L139.975 167.818C143.841 166.418 147.529 164.567 150.961 162.303 153.905 160.265 155.467 156.756 155.011 153.205L151.64 126.226C151.408 121.165 149.04 116.44 145.125 113.224 139.905 109.004 134.108 105.551 127.91 102.971 127.962 97.584 128.264 66.1596 128.318 53.694 128.383 50.3751 127.994 47.0629 127.163 43.8491 124.492 33.9817 117.742 25.7204 108.605 21.1362 107.115 20.4016 105.34 20.5513 103.994 21.5251L103.776 21.6806 102.915 20.4772C102.01 19.1836 100.632 18.2991 99.079 18.016 88.8352 16.2202 78.3265 19.1223 70.4561 25.9207 62.6291 32.8026 58.2331 42.7842 58.4396 53.2041L58.7506 102.973C52.5468 105.553 46.7443 109.009 41.5201 113.234 37.6043 116.449 35.236 121.175 35.0035 126.236L31.6363 153.228C31.1911 156.771 32.7534 160.268 35.6897 162.301 39.1168 164.564 42.7983 166.415 46.6583 167.816L46.6583 163.625C43.577 162.43 40.6316 160.909 37.873 159.089 36.1361 157.874 35.2179 155.795 35.4895 153.693L38.882 126.611 38.8975 126.417C39.0509 122.425 40.9283 118.696 44.0435 116.195 49.6717 111.397 57.7047 107.176 68.9533 103.037 74.2179 106.655 83.4018 108.869 93.3167 108.869 103.232 108.869 112.416 106.655 117.68 103.037ZM67.3436 99.5009C65.7041 100.105 64.1325 100.712 62.6291 101.322L62.3278 53.1789C62.1285 43.9059 66.0245 35.0161 72.9775 28.8776 79.9633 22.8344 89.2967 20.2536 98.3947 21.8497 98.9431 21.9623 99.4266 22.2827 99.7439 22.744L101.733 25.5241C102.356 26.3956 103.568 26.5984 104.441 25.977L106.239 24.6959C106.418 24.5606 106.655 24.5308 106.861 24.6181 115.006 28.7089 121.022 36.0768 123.402 44.8756 124.141 47.7492 124.484 50.71 124.422 53.6765 124.372 65.2089 124.109 92.9979 124.033 101.332 122.568 100.739 121.041 100.148 119.453 99.5592L113.232 97.0066C111.77 96.41 110.815 94.9886 110.814 93.41L110.814 86.9206C116.975 81.7602 120.534 74.136 120.534 66.0993L120.534 56.3788C120.534 53.1577 117.923 50.5465 114.702 50.5465L71.9316 50.5465C68.7104 50.5465 66.0993 53.1577 66.0993 56.3788L66.0993 66.0993C66.1003 74.1269 69.6533 81.7427 75.8043 86.9012L75.8043 93.4022C75.8097 94.9822 74.8585 96.4084 73.3975 97.0105ZM69.9875 66.0993 69.9875 56.3788C69.9875 55.3051 70.8579 54.4347 71.9316 54.4347L114.702 54.4347C115.775 54.4347 116.646 55.3051 116.646 56.3788L116.646 66.0993C116.646 78.9836 106.201 89.4285 93.3167 89.4285 80.4324 89.4285 69.9875 78.9836 69.9875 66.0993ZM93.3167 104.981C86.5194 105.138 79.7677 103.833 73.518 101.155L74.8789 100.599C77.8024 99.4087 79.7123 96.5647 79.708 93.4081L79.708 89.6229C88.1137 94.5368 98.5146 94.5421 106.925 89.6365L106.925 93.4081C106.92 96.5639 108.827 99.4083 111.749 100.601L113.11 101.159C106.862 103.835 100.112 105.139 93.3167 104.981Z" transform="matrix(1 0 0 1.00098 710.815 142.66)"/><path d="M136.087 127.416C136.076 123.605 132.978 120.523 129.166 120.534 129.162 120.534 129.158 120.534 129.154 120.534L57.4364 120.534C53.6344 120.534 50.5508 123.614 50.5465 127.416L50.5465 171.45 36.9379 171.45 36.9379 175.871C36.9633 179.663 40.0356 182.728 43.8277 182.745L142.829 182.745C146.615 182.715 149.674 179.649 149.696 175.863L149.696 171.45 136.087 171.45ZM145.807 175.338 145.807 175.855C145.797 177.503 144.468 178.838 142.821 178.857L43.8355 178.857C42.1817 178.852 40.8399 177.517 40.8261 175.863L40.8261 175.338 54.4347 175.338 54.4347 127.416C54.4369 125.761 55.7808 124.42 57.4364 124.422L129.213 124.422C130.862 124.429 132.197 125.767 132.199 127.416L132.199 175.338Z" transform="matrix(1 0 0 1.00098 710.815 142.66)"/><path d="M86.9128 161.71 90.5094 163.207 99.6078 141.2 96.0307 139.703 86.9128 161.71Z" transform="matrix(1 0 0 1.00098 710.815 142.66)"/><path d="M80.5168 140.033 69.6104 150.94 80.5168 161.846 83.2579 159.105 75.1122 150.94 83.2579 142.775 80.5168 140.033Z" transform="matrix(1 0 0 1.00098 710.815 142.66)"/><path d="M103.321 142.775 111.467 150.94 103.321 159.105 106.062 161.846 116.969 150.94 106.062 140.033 103.321 142.775Z" transform="matrix(1 0 0 1.00098 710.815 142.66)"/></g></g></g><g><g><g><path d="M17.8326 7.9256 17.8326 87.1816 77.2746 87.1816 77.2746 29.3108 55.8893 7.9256ZM56.4867 11.3247 73.8755 28.7134C73.8793 28.7173 73.8792 28.7237 73.8754 28.7274 73.8735 28.7292 73.8711 28.7303 73.8685 28.7303L56.4699 28.7303 56.4699 11.3316C56.47 11.3262 56.4744 11.3218 56.4799 11.3218 56.4825 11.3219 56.4849 11.3229 56.4867 11.3247ZM19.814 85.2002 19.814 9.907 54.4885 9.907 54.4885 30.7117 75.2932 30.7117 75.2932 85.2002Z" transform="matrix(1 0 0 1.00282 754.946 231.812)"/></g></g></g><rect x="788" y="255" width="61.0002" height="80.9998" fill="#FFFFFF"/><g clip-path="url(#clip5)"><g clip-path="url(#clip6)"><g><path d="M114.43 100.191C125.088 104.161 133.273 108.401 138.659 112.98 141.691 115.41 143.52 119.037 143.671 122.92L146.992 149.429C147.264 151.48 146.371 153.511 144.676 154.697 141.986 156.469 139.114 157.949 136.109 159.11L136.109 163.183C139.868 161.822 143.454 160.022 146.792 157.82 149.654 155.838 151.173 152.426 150.729 148.973L147.451 122.74C147.226 117.819 144.924 113.224 141.117 110.097 136.041 105.993 130.404 102.636 124.377 100.127 124.428 94.8888 124.721 64.3323 124.774 52.211 124.837 48.9837 124.459 45.7631 123.651 42.638 121.054 33.0431 114.49 25.01 105.605 20.5525 104.156 19.8381 102.431 19.9836 101.121 20.9305L100.91 21.0818 100.072 19.9116C99.1929 18.6537 97.8524 17.7937 96.3425 17.5184 86.3816 15.7722 76.1632 18.5942 68.5101 25.2047 60.8993 31.8966 56.6248 41.6025 56.8255 51.7347L57.128 100.129C51.0955 102.638 45.4532 105.998 40.3733 110.107 36.5657 113.233 34.2628 117.828 34.0367 122.75L30.7625 148.996C30.3296 152.441 31.8488 155.842 34.704 157.818 38.0364 160.019 41.6163 161.819 45.3697 163.181L45.3697 159.106C42.3734 157.944 39.5094 156.465 36.8269 154.695 35.1381 153.514 34.2452 151.492 34.5093 149.448L37.8081 123.114 37.8232 122.925C37.9723 119.044 39.7979 115.417 42.8271 112.986 48.2998 108.32 56.1109 104.216 67.0488 100.191 72.168 103.709 81.0983 105.863 90.7393 105.863 100.38 105.863 109.311 103.709 114.43 100.191ZM65.4836 96.7527C63.8894 97.3401 62.3612 97.9304 60.8993 98.524L60.6063 51.7101C60.4126 42.6932 64.2009 34.049 70.9619 28.08 77.7547 22.2037 86.8304 19.6942 95.6771 21.2462 96.2104 21.3557 96.6805 21.6672 96.989 22.1158L98.9229 24.8191C99.5292 25.6666 100.707 25.8637 101.556 25.2596L103.305 24.0138C103.478 23.8822 103.709 23.8533 103.91 23.9382 111.83 27.916 117.68 35.0804 119.993 43.6362 120.712 46.4304 121.046 49.3095 120.986 52.194 120.937 63.4079 120.681 90.4293 120.608 98.5335 119.182 97.9563 117.698 97.3817 116.154 96.8094L110.105 94.3273C108.683 93.7472 107.754 92.3651 107.753 90.8301L107.753 84.5199C113.744 79.502 117.205 72.0884 117.205 64.2737L117.205 54.8217C117.205 51.6895 114.666 49.1505 111.534 49.1505L69.9449 49.1505C66.8127 49.1505 64.2737 51.6895 64.2737 54.8217L64.2737 64.2737C64.2747 72.0796 67.7295 79.485 73.7106 84.501L73.7106 90.8225C73.7159 92.3589 72.7909 93.7457 71.3703 94.3311ZM68.0545 64.2737 68.0545 54.8217C68.0545 53.7776 68.9008 52.9313 69.9449 52.9313L111.534 52.9313C112.578 52.9313 113.424 53.7776 113.424 54.8217L113.424 64.2737C113.424 76.8022 103.268 86.9585 90.7393 86.9585 78.2109 86.9585 68.0545 76.8022 68.0545 64.2737ZM90.7393 102.082C84.1297 102.234 77.5646 100.965 71.4875 98.3615L72.8108 97.8208C75.6535 96.6631 77.5107 93.8976 77.5065 90.8282L77.5065 87.1476C85.6801 91.9258 95.7937 91.9309 103.972 87.1608L103.972 90.8282C103.967 93.8969 105.821 96.6627 108.662 97.8227L109.986 98.3652C103.91 100.968 97.3469 102.235 90.7393 102.082Z" transform="matrix(1.02841 0 0 1 726.815 162.469)"/><path d="M132.328 123.897C132.318 120.191 129.305 117.195 125.598 117.205 125.595 117.205 125.591 117.205 125.587 117.205L55.8501 117.205C52.153 117.205 49.1546 120.2 49.1505 123.897L49.1505 166.715 35.9177 166.715 35.9177 171.013C35.9424 174.701 38.9298 177.681 42.6172 177.698L138.884 177.698C142.565 177.669 145.54 174.687 145.561 171.006L145.561 166.715 132.328 166.715ZM141.78 170.495 141.78 170.998C141.77 172.6 140.478 173.899 138.877 173.917L42.6248 173.917C41.0166 173.912 39.7119 172.614 39.6985 171.006L39.6985 170.495 52.9313 170.495 52.9313 123.897C52.9334 122.287 54.2402 120.984 55.8501 120.986L125.644 120.986C127.248 120.992 128.545 122.293 128.547 123.897L128.547 170.495Z" transform="matrix(1.02841 0 0 1 726.815 162.469)"/><path d="M84.5124 157.244 88.0096 158.699 96.8567 137.3 93.3783 135.844 84.5124 157.244Z" transform="matrix(1.02841 0 0 1 726.815 162.469)"/><path d="M78.2929 136.166 67.6878 146.771 78.2929 157.376 80.9584 154.711 73.0376 146.771 80.9584 138.831 78.2929 136.166Z" transform="matrix(1.02841 0 0 1 726.815 162.469)"/><path d="M100.467 138.831 108.388 146.771 100.467 154.711 103.133 157.376 113.738 146.771 103.133 136.166 100.467 138.831Z" transform="matrix(1.02841 0 0 1 726.815 162.469)"/></g></g></g><g><g><g><path d="M17.8327 7.92564 17.8327 87.1821 77.275 87.1821 77.275 29.311 55.8897 7.92564ZM56.4871 11.3248 73.8759 28.7136C73.8798 28.7175 73.8797 28.7238 73.8758 28.7276 73.8739 28.7294 73.8716 28.7305 73.869 28.7305L56.4702 28.7305 56.4702 11.3317C56.4703 11.3262 56.4748 11.3219 56.4802 11.3219 56.4828 11.322 56.4853 11.323 56.4871 11.3248ZM19.8141 85.2007 19.8141 9.90706 54.4888 9.90706 54.4888 30.7119 75.2936 30.7119 75.2936 85.2007Z" transform="matrix(1 0 0 1.00281 770.946 247.813)"/></g></g></g><path d="M808.032 209.742 860.343 259.547 846.574 274.008 794.264 224.203Z" fill="#F2F2F2" fill-rule="evenodd"/><path d="M849 296 993.269 296 993.269 338.157" stroke="#000000" stroke-width="2.29167" stroke-miterlimit="8" fill="none" fill-rule="evenodd"/><rect x="1273" y="1128" width="135" height="52.0002" fill="#F2F2F2"/><text font-family="Times New Roman,Times New Roman_MSFontService,sans-serif" font-weight="400" font-size="37" transform="matrix(1 0 0 1 1284.28 1173)">Control</text><path d="M1703 1684.5C1703 1672.07 1713.07 1662 1725.5 1662 1737.93 1662 1748 1672.07 1748 1684.5 1748 1696.93 1737.93 1707 1725.5 1707 1713.07 1707 1703 1696.93 1703 1684.5Z" stroke="#000000" stroke-width="2.29167" stroke-miterlimit="8" fill="#FFFFFF" fill-rule="evenodd"/><text font-family="Times New Roman,Times New Roman_MSFontService,sans-serif" font-weight="400" font-size="28" transform="matrix(1 0 0 1 1754.93 1695)">Start</text><path d="M1296 1639C1296 1626.85 1306.3 1617 1319 1617 1331.7 1617 1342 1626.85 1342 1639 1342 1651.15 1331.7 1661 1319 1661 1306.3 1661 1296 1651.15 1296 1639Z" stroke="#000000" stroke-width="2.29167" stroke-miterlimit="8" fill="#FFFFFF" fill-rule="evenodd"/><g><g><g><path d="M1307.31 1645.57 1306.11 1649.17 1308.84 1651.9 1312.44 1650.7C1313.39 1651.23 1314.4 1651.65 1315.45 1651.95L1317.13 1655.3 1320.96 1655.3 1322.64 1651.95C1323.68 1651.66 1324.68 1651.24 1325.61 1650.7L1329.21 1651.9 1331.94 1649.17 1330.74 1645.57C1331.27 1644.62 1331.69 1643.61 1331.99 1642.55L1335.34 1640.88 1335.34 1637.04 1331.94 1635.41C1331.65 1634.37 1331.23 1633.38 1330.69 1632.44L1331.89 1628.85 1329.16 1626.12 1325.56 1627.32C1324.61 1626.78 1323.6 1626.36 1322.55 1626.07L1320.92 1622.71 1317.08 1622.71 1315.41 1626.06C1314.37 1626.35 1313.37 1626.77 1312.44 1627.31L1308.84 1626.11 1306.11 1628.84 1307.31 1632.44C1306.78 1633.39 1306.36 1634.4 1306.06 1635.45L1302.71 1637.08 1302.71 1640.92 1306.06 1642.59C1306.35 1643.64 1306.77 1644.64 1307.31 1645.57ZM1303.67 1637.69 1306.48 1636.32 1306.87 1636.13 1306.99 1635.71C1307.26 1634.73 1307.65 1633.79 1308.15 1632.9L1308.35 1632.53 1308.22 1632.14 1307.21 1629.1 1309.1 1627.21 1312.13 1628.22 1312.54 1628.36 1312.92 1628.14C1313.78 1627.64 1314.7 1627.25 1315.66 1626.99L1316.07 1626.88 1316.26 1626.49 1317.68 1623.67 1320.32 1623.67 1321.68 1626.48 1321.87 1626.88 1322.29 1626.99C1323.27 1627.27 1324.22 1627.66 1325.1 1628.15L1325.47 1628.35 1325.87 1628.22 1328.9 1627.21 1330.8 1629.1 1329.78 1632.14 1329.65 1632.55 1329.86 1632.92C1330.36 1633.78 1330.75 1634.7 1331.01 1635.66L1331.13 1636.09 1331.52 1636.28 1334.38 1637.64 1334.38 1640.28 1331.56 1641.7 1331.17 1641.89 1331.06 1642.3C1330.79 1643.28 1330.4 1644.22 1329.9 1645.11L1329.7 1645.48 1329.83 1645.88 1330.84 1648.91 1328.95 1650.8 1325.92 1649.79 1325.51 1649.66 1325.13 1649.87C1324.27 1650.37 1323.35 1650.76 1322.39 1651.02L1321.98 1651.13 1321.78 1651.52 1320.37 1654.35 1317.72 1654.35 1316.31 1651.52 1316.12 1651.13 1315.71 1651.02C1314.73 1650.75 1313.79 1650.36 1312.9 1649.86L1312.53 1649.66 1312.13 1649.79 1309.1 1650.8 1307.21 1648.91 1308.22 1645.88 1308.35 1645.47 1308.14 1645.09C1307.64 1644.23 1307.25 1643.31 1306.99 1642.35L1306.88 1641.94 1306.49 1641.74 1303.67 1640.33Z"/><path d="M1319 1644.76C1322.18 1644.76 1324.75 1642.18 1324.75 1639.01 1324.75 1635.83 1322.18 1633.26 1319 1633.26 1315.82 1633.26 1313.25 1635.83 1313.25 1639.01 1313.26 1642.18 1315.83 1644.75 1319 1644.76ZM1319 1634.21C1321.65 1634.21 1323.79 1636.36 1323.79 1639 1323.79 1641.65 1321.65 1643.8 1319 1643.8 1316.35 1643.8 1314.21 1641.65 1314.21 1639 1314.21 1636.36 1316.35 1634.22 1319 1634.21Z"/></g></g></g><text font-family="Times New Roman,Times New Roman_MSFontService,sans-serif" font-weight="400" font-size="28" transform="matrix(1 0 0 1 1348.17 1650)">Produced component</text><rect x="1600" y="1616" width="28.9999" height="33" fill="#FFFFFF"/><g clip-path="url(#clip7)"><g clip-path="url(#clip8)"><g><path d="M47.1173 41.2545C51.5058 42.8891 54.8762 44.635 57.0938 46.5202 58.3423 47.521 59.0951 49.0142 59.1573 50.613L60.525 61.5283C60.6368 62.3727 60.2692 63.2091 59.5714 63.6977 58.4637 64.4273 57.2811 65.0364 56.0438 65.5144L56.0438 67.1918C57.5917 66.6312 59.0681 65.89 60.4424 64.9835 61.621 64.1675 62.2463 62.7625 62.0638 61.3407L60.7141 50.539C60.6212 48.5127 59.6732 46.6207 58.1057 45.3332 56.0156 43.6433 53.6945 42.2609 51.2131 41.228 51.2341 39.0711 51.3548 26.4892 51.3766 21.4982 51.4024 20.1694 51.2468 18.8432 50.9142 17.5565 49.8447 13.6057 47.1421 10.298 43.4837 8.46261 42.887 8.16846 42.1765 8.2284 41.6374 8.61829L41.5502 8.68056 41.2054 8.19874C40.8433 7.68079 40.2914 7.32667 39.6697 7.2133 35.5682 6.49432 31.3607 7.65628 28.2095 10.3782 25.0757 13.1336 23.3156 17.1301 23.3983 21.3021L23.5228 41.2288C21.0389 42.2618 18.7157 43.6453 16.624 45.3371 15.0562 46.6245 14.1079 48.5164 14.0148 50.5429L12.6667 61.35C12.4884 62.7687 13.1139 64.1689 14.2896 64.9828 15.6617 65.8887 17.1358 66.6299 18.6813 67.191L18.6813 65.5128C17.4475 65.0344 16.2683 64.4256 15.1637 63.6969 14.4683 63.2103 14.1007 62.3778 14.2094 61.5361L15.5677 50.6932 15.5739 50.6153C15.6354 49.017 16.387 47.5239 17.6343 46.5226 19.8878 44.6015 23.104 42.9116 27.6078 41.2545 29.7157 42.703 33.3928 43.5896 37.3625 43.5896 41.3323 43.5896 45.0094 42.703 47.1173 41.2545ZM26.9633 39.8386C26.3069 40.0804 25.6776 40.3235 25.0757 40.5679L24.9551 21.292C24.8753 17.5792 26.4352 14.0199 29.219 11.5621 32.016 9.14253 35.753 8.10922 39.3957 8.74828 39.6152 8.79335 39.8088 8.92163 39.9359 9.10634L40.7322 10.2194C40.9818 10.5684 41.4668 10.6496 41.8164 10.4008L42.5365 9.88784C42.6079 9.83366 42.7029 9.82175 42.7855 9.8567 46.0467 11.4946 48.4555 14.4446 49.408 17.9675 49.7039 19.118 49.8414 20.3035 49.8167 21.4912 49.7965 26.1086 49.6914 37.2349 49.661 40.5718 49.0741 40.3342 48.4628 40.0975 47.8271 39.8619L45.3363 38.8399C44.7511 38.601 44.3685 38.0319 44.368 37.3999L44.368 34.8016C46.8349 32.7355 48.26 29.6829 48.2599 26.4651L48.2599 22.5732C48.2599 21.2835 47.2145 20.238 45.9248 20.238L28.8003 20.238C27.5106 20.238 26.4651 21.2835 26.4651 22.5732L26.4651 26.4651C26.4655 29.6792 27.8881 32.7285 30.3508 34.7938L30.3508 37.3968C30.353 38.0294 29.9721 38.6004 29.3872 38.8415ZM28.0219 26.4651 28.0219 22.5732C28.0219 22.1433 28.3704 21.7948 28.8003 21.7948L45.9248 21.7948C46.3547 21.7948 46.7032 22.1433 46.7032 22.5732L46.7032 26.4651C46.7032 31.6238 42.5212 35.8058 37.3625 35.8058 32.2038 35.8058 28.0219 31.6238 28.0219 26.4651ZM37.3625 42.0328C34.641 42.0955 31.9377 41.573 29.4354 40.501L29.9803 40.2784C31.1508 39.8017 31.9155 38.663 31.9138 37.3991L31.9138 35.8836C35.2793 37.851 39.4437 37.8531 42.8112 35.889L42.8112 37.3991C42.809 38.6627 43.5726 39.8015 44.7424 40.2791L45.2873 40.5025C42.7857 41.5741 40.0832 42.096 37.3625 42.0328Z" transform="matrix(1.18309 0 0 1 1571.07 1577.67)"/><path d="M54.487 51.0154C54.4827 49.4893 53.2421 48.2556 51.716 48.2599 51.7144 48.2599 51.7128 48.2599 51.7113 48.2599L22.9966 48.2599C21.4743 48.2599 20.2397 49.4931 20.238 51.0154L20.238 68.6459 14.7893 68.6459 14.7893 70.4159C14.7995 71.9341 16.0296 73.1615 17.5479 73.1683L57.1865 73.1683C58.7023 73.1564 59.9272 71.9286 59.9357 70.4128L59.9357 68.6459 54.487 68.6459ZM58.3789 70.2026 58.3789 70.4097C58.3747 71.0693 57.8429 71.6039 57.1833 71.6115L17.551 71.6115C16.8889 71.6094 16.3516 71.075 16.3461 70.4128L16.3461 70.2026 21.7948 70.2026 21.7948 51.0154C21.7957 50.3525 22.3338 49.8158 22.9966 49.8167L51.7346 49.8167C52.3951 49.8193 52.9294 50.3549 52.9302 51.0154L52.9302 70.2026Z" transform="matrix(1.18309 0 0 1 1571.07 1577.67)"/><path d="M34.7985 64.7461 36.2385 65.3455 39.8814 56.5342 38.4492 55.9348 34.7985 64.7461Z" transform="matrix(1.18309 0 0 1 1571.07 1577.67)"/><path d="M32.2376 56.0671 27.8709 60.4339 32.2376 64.8006 33.3352 63.7031 30.0737 60.4339 33.3352 57.1647 32.2376 56.0671Z" transform="matrix(1.18309 0 0 1 1571.07 1577.67)"/><path d="M41.3681 57.1647 44.6295 60.4339 41.3681 63.7031 42.4656 64.8006 46.8324 60.4339 42.4656 56.0671 41.3681 57.1647Z" transform="matrix(1.18309 0 0 1 1571.07 1577.67)"/></g></g></g><g><g><g><path d="M7.28558 3.23804 7.28558 35.6184 31.5709 35.6184 31.5709 11.9751 22.8338 3.23804ZM23.0779 4.62675 30.1821 11.731C30.1837 11.7326 30.1837 11.7352 30.1821 11.7367 30.1813 11.7374 30.1804 11.7379 30.1793 11.7379L23.071 11.7379 23.071 4.62958C23.0711 4.62736 23.0729 4.62558 23.0751 4.62558 23.0762 4.62562 23.0772 4.62602 23.0779 4.62675ZM8.09509 34.8089 8.09509 4.04755 22.2615 4.04755 22.2615 12.5474 30.7614 12.5474 30.7614 34.8089Z" transform="matrix(1.16364 0 0 1 1591.89 1613.07)"/></g></g></g><rect x="1607" y="1623" width="29.9999" height="32.0004" fill="#FFFFFF"/><g clip-path="url(#clip9)"><g clip-path="url(#clip10)"><g><path d="M43.7528 38.3086C47.8279 39.8265 50.9577 41.4478 53.017 43.1984 54.1763 44.1277 54.8754 45.5143 54.9331 46.9989L56.2031 57.1348C56.3069 57.9189 55.9656 58.6956 55.3176 59.1492 54.289 59.8268 53.1909 60.3924 52.0419 60.8363L52.0419 62.3939C53.4793 61.8733 54.8503 61.185 56.1265 60.3433 57.2209 59.5855 57.8016 58.2809 57.6321 56.9606L56.3787 46.9302C56.2925 45.0485 55.4122 43.2917 53.9566 42.0961 52.0157 40.5269 49.8604 39.2432 47.5562 38.284 47.5757 36.2812 47.6877 24.5977 47.708 19.9631 47.732 18.7292 47.5875 17.4977 47.2786 16.3028 46.2855 12.6342 43.7758 9.5627 40.3787 7.85833 39.8246 7.58518 39.1649 7.64083 38.6642 8.00289L38.5833 8.06071 38.2631 7.6133C37.9268 7.13233 37.4143 6.80349 36.837 6.69823 33.0284 6.03058 29.1213 7.10957 26.1951 9.63715 23.2851 12.1958 21.6507 15.9069 21.7275 19.781L21.8431 38.2848C19.5366 39.2441 17.3792 40.5288 15.4369 42.0997 13.9811 43.2952 13.1005 45.052 13.0141 46.9338L11.7622 56.9693C11.5967 58.2866 12.1775 59.5868 13.2692 60.3426 14.5434 61.1839 15.9122 61.8721 17.3473 62.3932L17.3473 60.8348C16.2017 60.3905 15.1066 59.8252 14.0809 59.1485 13.4352 58.6967 13.0938 57.9236 13.1948 57.142L14.4561 47.0733 14.4619 47.0011C14.5189 45.5169 15.2169 44.1304 16.3751 43.2006 18.4676 41.4167 21.4543 39.8475 25.6364 38.3086 27.5938 39.6538 31.0083 40.477 34.6946 40.477 38.3809 40.477 41.7954 39.6538 43.7528 38.3086ZM25.0379 36.9938C24.4284 37.2184 23.8441 37.4441 23.2851 37.6711L23.1731 19.7716C23.099 16.324 24.5475 13.0188 27.1326 10.7365 29.7299 8.4897 33.2 7.53017 36.5826 8.1236 36.7865 8.16545 36.9662 8.28456 37.0842 8.45609L37.8236 9.4897C38.0554 9.81373 38.5058 9.88912 38.8305 9.65811L39.4991 9.18178C39.5654 9.13147 39.6537 9.12041 39.7304 9.15287 42.7587 10.6738 44.9954 13.4131 45.88 16.6845 46.1547 17.7529 46.2824 18.8537 46.2595 19.9566 46.2407 24.2443 46.1431 34.5761 46.1149 37.6747 45.5699 37.454 45.0023 37.2343 44.412 37.0155L42.099 36.0665C41.5556 35.8447 41.2003 35.3162 41.1998 34.7293L41.1998 32.3166C43.4905 30.398 44.8139 27.5633 44.8139 24.5753L44.8139 20.9613C44.8139 19.7637 43.8431 18.7929 42.6454 18.7929L26.7438 18.7929C25.5461 18.7929 24.5753 19.7637 24.5753 20.9613L24.5753 24.5753C24.5757 27.5599 25.8967 30.3915 28.1836 32.3093L28.1836 34.7264C28.1856 35.3138 27.8319 35.8441 27.2887 36.0679ZM26.0209 24.5753 26.0209 20.9613C26.0209 20.5621 26.3445 20.2385 26.7438 20.2385L42.6454 20.2385C43.0446 20.2385 43.3682 20.5621 43.3682 20.9613L43.3682 24.5753C43.3682 29.3657 39.4849 33.249 34.6946 33.249 29.9043 33.249 26.0209 29.3657 26.0209 24.5753ZM34.6946 39.0314C32.1674 39.0896 29.6572 38.6045 27.3336 37.6089L27.8395 37.4022C28.9265 36.9596 29.6366 35.9022 29.635 34.7286L29.635 33.3213C32.7602 35.1482 36.6272 35.1502 39.7542 33.3263L39.7542 34.7286C39.7521 35.9019 40.4613 36.9594 41.5475 37.4029L42.0535 37.6104C39.7305 38.6054 37.221 39.09 34.6946 39.0314Z" transform="matrix(1.32124 0 0 1 1576.96 1588.47)"/><path d="M50.5963 47.3726C50.5923 45.9555 49.4403 44.8099 48.0231 44.8139 48.0217 44.8139 48.0202 44.8139 48.0188 44.8139L21.3545 44.8139C19.9409 44.8139 18.7945 45.959 18.7929 47.3726L18.7929 63.7441 13.7333 63.7441 13.7333 65.3877C13.7427 66.7976 14.885 67.9373 16.2949 67.9436L53.103 67.9436C54.5106 67.9325 55.648 66.7924 55.6559 65.3849L55.6559 63.7441 50.5963 63.7441ZM54.2103 65.1897 54.2103 65.382C54.2064 65.9945 53.7125 66.4909 53.1001 66.498L16.2978 66.498C15.6829 66.496 15.184 65.9997 15.1789 65.3849L15.1789 65.1897 20.2385 65.1897 20.2385 47.3726C20.2393 46.757 20.739 46.2587 21.3545 46.2595L48.0405 46.2595C48.6538 46.2619 49.1499 46.7593 49.1507 47.3726L49.1507 65.1897Z" transform="matrix(1.32124 0 0 1 1576.96 1588.47)"/><path d="M32.3137 60.1228 33.6509 60.6794 37.0336 52.4973 35.7036 51.9407 32.3137 60.1228Z" transform="matrix(1.32124 0 0 1 1576.96 1588.47)"/><path d="M29.9357 52.0636 25.8807 56.1185 29.9357 60.1734 30.9548 59.1543 27.9263 56.1185 30.9548 53.0827 29.9357 52.0636Z" transform="matrix(1.32124 0 0 1 1576.96 1588.47)"/><path d="M38.4141 53.0827 41.4427 56.1185 38.4141 59.1543 39.4333 60.1734 43.4882 56.1185 39.4333 52.0636 38.4141 53.0827Z" transform="matrix(1.32124 0 0 1 1576.96 1588.47)"/></g></g></g><g><g><g><path d="M7.06488 3.13995 7.06488 34.5394 30.6145 34.5394 30.6145 11.6123 22.1421 3.13995ZM22.3788 4.48659 29.2678 11.3756C29.2694 11.3772 29.2693 11.3797 29.2678 11.3812 29.2671 11.3819 29.2661 11.3823 29.2651 11.3823L22.3721 11.3823 22.3721 4.48934C22.3722 4.48718 22.3739 4.48545 22.3761 4.48545 22.3771 4.48549 22.3781 4.48589 22.3788 4.48659ZM7.84987 33.7544 7.84987 3.92493 21.5871 3.92493 21.5871 12.1673 29.8295 12.1673 29.8295 33.7544Z" transform="matrix(1.24137 0 0 1 1598.61 1620.16)"/></g></g></g><rect x="1615" y="1629" width="29.9999" height="33" fill="#FFFFFF"/><g clip-path="url(#clip11)"><g clip-path="url(#clip12)"><g><path d="M47.1173 41.2545C51.5058 42.8891 54.8762 44.635 57.0938 46.5202 58.3423 47.521 59.0951 49.0142 59.1573 50.613L60.525 61.5283C60.6368 62.3727 60.2692 63.2091 59.5714 63.6977 58.4637 64.4273 57.2811 65.0364 56.0438 65.5144L56.0438 67.1918C57.5917 66.6312 59.0681 65.89 60.4424 64.9835 61.621 64.1675 62.2463 62.7625 62.0638 61.3407L60.7141 50.539C60.6212 48.5127 59.6732 46.6207 58.1057 45.3332 56.0156 43.6433 53.6945 42.2609 51.2131 41.228 51.2341 39.0711 51.3548 26.4892 51.3766 21.4982 51.4024 20.1694 51.2468 18.8432 50.9142 17.5565 49.8447 13.6057 47.1421 10.298 43.4837 8.46261 42.887 8.16846 42.1765 8.2284 41.6374 8.61829L41.5502 8.68056 41.2054 8.19874C40.8433 7.68079 40.2914 7.32667 39.6697 7.2133 35.5682 6.49432 31.3607 7.65628 28.2095 10.3782 25.0757 13.1336 23.3156 17.1301 23.3983 21.3021L23.5228 41.2288C21.0389 42.2618 18.7157 43.6453 16.624 45.3371 15.0562 46.6245 14.1079 48.5164 14.0148 50.5429L12.6667 61.35C12.4884 62.7687 13.1139 64.1689 14.2896 64.9828 15.6617 65.8887 17.1358 66.6299 18.6813 67.191L18.6813 65.5128C17.4475 65.0344 16.2683 64.4256 15.1637 63.6969 14.4683 63.2103 14.1007 62.3778 14.2094 61.5361L15.5677 50.6932 15.5739 50.6153C15.6354 49.017 16.387 47.5239 17.6343 46.5226 19.8878 44.6015 23.104 42.9116 27.6078 41.2545 29.7157 42.703 33.3928 43.5896 37.3625 43.5896 41.3323 43.5896 45.0094 42.703 47.1173 41.2545ZM26.9633 39.8386C26.3069 40.0804 25.6776 40.3235 25.0757 40.5679L24.9551 21.292C24.8753 17.5792 26.4352 14.0199 29.219 11.5621 32.016 9.14253 35.753 8.10922 39.3957 8.74828 39.6152 8.79335 39.8088 8.92163 39.9359 9.10634L40.7322 10.2194C40.9818 10.5684 41.4668 10.6496 41.8164 10.4008L42.5365 9.88784C42.6079 9.83366 42.7029 9.82175 42.7855 9.8567 46.0467 11.4946 48.4555 14.4446 49.408 17.9675 49.7039 19.118 49.8414 20.3035 49.8167 21.4912 49.7965 26.1086 49.6914 37.2349 49.661 40.5718 49.0741 40.3342 48.4628 40.0975 47.8271 39.8619L45.3363 38.8399C44.7511 38.601 44.3685 38.0319 44.368 37.3999L44.368 34.8016C46.8349 32.7355 48.26 29.6829 48.2599 26.4651L48.2599 22.5732C48.2599 21.2835 47.2145 20.238 45.9248 20.238L28.8003 20.238C27.5106 20.238 26.4651 21.2835 26.4651 22.5732L26.4651 26.4651C26.4655 29.6792 27.8881 32.7285 30.3508 34.7938L30.3508 37.3968C30.353 38.0294 29.9721 38.6004 29.3872 38.8415ZM28.0219 26.4651 28.0219 22.5732C28.0219 22.1433 28.3704 21.7948 28.8003 21.7948L45.9248 21.7948C46.3547 21.7948 46.7032 22.1433 46.7032 22.5732L46.7032 26.4651C46.7032 31.6238 42.5212 35.8058 37.3625 35.8058 32.2038 35.8058 28.0219 31.6238 28.0219 26.4651ZM37.3625 42.0328C34.641 42.0955 31.9377 41.573 29.4354 40.501L29.9803 40.2784C31.1508 39.8017 31.9155 38.663 31.9138 37.3991L31.9138 35.8836C35.2793 37.851 39.4437 37.8531 42.8112 35.889L42.8112 37.3991C42.809 38.6627 43.5726 39.8015 44.7424 40.2791L45.2873 40.5025C42.7857 41.5741 40.0832 42.096 37.3625 42.0328Z" transform="matrix(1.22691 0 0 1 1584.96 1590.67)"/><path d="M54.487 51.0154C54.4827 49.4893 53.2421 48.2556 51.716 48.2599 51.7144 48.2599 51.7128 48.2599 51.7113 48.2599L22.9966 48.2599C21.4743 48.2599 20.2397 49.4931 20.238 51.0154L20.238 68.6459 14.7893 68.6459 14.7893 70.4159C14.7995 71.9341 16.0296 73.1615 17.5479 73.1683L57.1865 73.1683C58.7023 73.1564 59.9272 71.9286 59.9357 70.4128L59.9357 68.6459 54.487 68.6459ZM58.3789 70.2026 58.3789 70.4097C58.3747 71.0693 57.8429 71.6039 57.1833 71.6115L17.551 71.6115C16.8889 71.6094 16.3516 71.075 16.3461 70.4128L16.3461 70.2026 21.7948 70.2026 21.7948 51.0154C21.7957 50.3525 22.3338 49.8158 22.9966 49.8167L51.7346 49.8167C52.3951 49.8193 52.9294 50.3549 52.9302 51.0154L52.9302 70.2026Z" transform="matrix(1.22691 0 0 1 1584.96 1590.67)"/><path d="M34.7985 64.7461 36.2385 65.3455 39.8814 56.5342 38.4492 55.9348 34.7985 64.7461Z" transform="matrix(1.22691 0 0 1 1584.96 1590.67)"/><path d="M32.2376 56.0671 27.8709 60.4339 32.2376 64.8006 33.3352 63.7031 30.0737 60.4339 33.3352 57.1647 32.2376 56.0671Z" transform="matrix(1.22691 0 0 1 1584.96 1590.67)"/><path d="M41.3681 57.1647 44.6295 60.4339 41.3681 63.7031 42.4656 64.8006 46.8324 60.4339 42.4656 56.0671 41.3681 57.1647Z" transform="matrix(1.22691 0 0 1 1584.96 1590.67)"/></g></g></g><g><g><g><path d="M7.28558 3.23804 7.28558 35.6184 31.5709 35.6184 31.5709 11.9751 22.8338 3.23804ZM23.0779 4.62675 30.1821 11.731C30.1837 11.7326 30.1837 11.7352 30.1821 11.7367 30.1813 11.7374 30.1804 11.7379 30.1793 11.7379L23.071 11.7379 23.071 4.62958C23.0711 4.62736 23.0729 4.62558 23.0751 4.62558 23.0762 4.62562 23.0772 4.62602 23.0779 4.62675ZM8.09509 34.8089 8.09509 4.04755 22.2615 4.04755 22.2615 12.5474 30.7614 12.5474 30.7614 34.8089Z" transform="matrix(1.20376 0 0 1 1606.61 1626.07)"/></g></g></g><text font-family="Times New Roman,Times New Roman_MSFontService,sans-serif" font-weight="400" font-size="28" transform="matrix(1 0 0 1 1651.28 1650)">Process plans</text></g></svg>